<svg id="Layer_1" data-name="Layer 1" xmlns="http://www.w3.org/2000/svg" xmlns:xlink="http://www.w3.org/1999/xlink" viewBox="0 0 3140.96 957.77"><defs><style>.cls-1{fill:#fff;}.cls-2{fill:url(#linear-gradient);}</style><linearGradient id="linear-gradient" x1="2399.68" y1="1480.55" x2="2834.88" y2="2234.35" gradientUnits="userSpaceOnUse"><stop offset="0" stop-color="#f9e7bb"/><stop offset="0.5" stop-color="#e97cbb"/><stop offset="1" stop-color="#3d47d9"/></linearGradient></defs><path class="cls-1" d="M691.33,1823.06H503.88l15.11-92.2,151.68.5a203.53,203.53,0,0,0,68-11.33q32.25-11.33,54.42-35.25t27.72-62.7q4.53-36.27-7.31-57.93T777,1532.67q-24.71-9.83-57.94-10.33l-125-.5L484.22,2155.06h-124l127.48-734,234.31.5a387.57,387.57,0,0,1,88.69,11.84q41.82,10.83,73.31,33.5t48.38,59.21q16.88,36.51,13.36,89.4-4,56.45-34.27,94t-76.84,57.43a329.8,329.8,0,0,1-98,24.93Zm-61,332H404.1l72.56-100.28,157.22.5q37.77,0,70-13.12a131.53,131.53,0,0,0,53.66-39.63q21.42-26.49,27-65.38,4.51-34.31-4-59.31A72.18,72.18,0,0,0,749.78,1839q-22.17-13.87-57.45-15.41l-145.12-.5,17.14-92.2,174.34.5,21.17,34.76q47.34,4.55,81.38,27a139.27,139.27,0,0,1,50.89,59.27Q909,1889.23,906,1937.14q-5.54,75.67-44.85,124.09t-100.28,71.38Q699.89,2155.57,630.36,2155.06Z" transform="translate(-360.27 -1421.06)"/><path class="cls-1" d="M1145.81,2085.14l224.74-475.08h131l-319.47,623.6a393.62,393.62,0,0,1-31,53,231.58,231.58,0,0,1-39.54,44,172.32,172.32,0,0,1-49.64,29.74q-27.48,10.71-61.72,10.73a217.69,217.69,0,0,1-31-3.26q-15.36-2.79-30.49-6.32l8.57-93.22q5.55.49,11.09,1.27a86.05,86.05,0,0,0,11.08.75q28.72,1,50.39-7.22a103.69,103.69,0,0,0,38.05-25.22q16.35-17,29-41.42Zm1-475.08,55.44,410.74-1,122.92-82.64,21-95.73-554.64Z" transform="translate(-360.27 -1421.06)"/><path class="cls-1" d="M3394.8,1826l-12.09,75.1-78.61-.52a285,285,0,0,0-49.64,4.52,174.82,174.82,0,0,0-47.61,15.51,110.21,110.21,0,0,0-37.3,29.78q-15.11,18.78-18.64,46.8-2.52,22.53,5.3,38.8a59.26,59.26,0,0,0,23.94,25.78q16.13,9.51,38.29,10a145.29,145.29,0,0,0,58.71-11.52,147.51,147.51,0,0,0,50.39-34.28,118.86,118.86,0,0,0,29.48-51.31l31.74,54.06a204.74,204.74,0,0,1-31,56.33,218,218,0,0,1-46.11,44.25,210.32,210.32,0,0,1-57.2,28.66,195.09,195.09,0,0,1-63.73,9.54q-45.36-1-82.65-20.83a150,150,0,0,1-58.95-55.5q-21.68-35.64-19.15-82.37,2.52-52.71,27-88.13a178.78,178.78,0,0,1,63-56.25,297.25,297.25,0,0,1,84.4-29.87,467.82,467.82,0,0,1,90.71-9Zm-54.92,222,41.33-260.79q3-26.13-3.53-47.23a62.55,62.55,0,0,0-23.94-33.42q-17.38-12.32-45.61-12.82a120.75,120.75,0,0,0-47.36,8.33,98.57,98.57,0,0,0-37.54,26q-15.37,17.13-20.41,41.81l-118.42.5q3-42.83,25.45-74.83a186.56,186.56,0,0,1,56.94-52.91,264.72,264.72,0,0,1,74.58-30.73,311.22,311.22,0,0,1,78.36-9.33q55.42,1,98.26,23.63t65.25,63.86q22.41,41.22,16.89,99.53l-39.81,242.31q-4.55,28.66-6.3,58.56a147.31,147.31,0,0,0,7.81,57.57l-1,9-117.41.5a198.6,198.6,0,0,1-7.56-54.51A373.6,373.6,0,0,1,3339.88,2048Z" transform="translate(-360.27 -1421.06)"/><path class="cls-2" d="M2624.17,1424.86,2741,1691.41l192.48-266.55h148.65L2805.52,1794.2l160.74,364.3H2829.2l-111.86-272.09-357.47,492.43H2203.68l449.17-596.23-156.71-357.75Z" transform="translate(-360.27 -1421.06)"/><path class="cls-1" d="M1858.42,1611.78l-15.62,88.69H1544.49l15.11-88.69Zm-189.46-134h118.4l-90.19,530.16q-2,17.67.25,30.81T1709,2059.2q9.33,7.32,29,7.81a114.4,114.4,0,0,0,21.4-1l21.92-3-8.56,93.72a234,234,0,0,1-37,8.08,240.41,240.41,0,0,1-38,2q-45.37-.51-73.07-20.94t-38.8-54.76q-11.08-34.32-7-76.74Z" transform="translate(-360.27 -1421.06)"/><path class="cls-1" d="M2123.44,2165.78q-56-1-99-21.89t-71.3-56.91q-28.21-36-40.81-83.09t-8.56-100.47l2-20.64a373.63,373.63,0,0,1,26.69-106,321.76,321.76,0,0,1,56.7-91.14,262.72,262.72,0,0,1,83.91-63.2q48.38-23.16,107.83-21.66,56.92,1,96.23,23.69t62.49,60.22q23.18,37.55,31,84.92a361.7,361.7,0,0,1,2.26,98.26l-7,51.91H1956.64l14.11-87.19,288.74.52,2-10.6q4.53-31.73-3.28-60t-28.47-46.36q-20.67-18.15-55.42-19.16-37.8-1-64.76,15.61a137.09,137.09,0,0,0-44.6,44.8,248.81,248.81,0,0,0-27.45,61.15,407.24,407.24,0,0,0-13.86,64.19l-2,20.12a230.29,230.29,0,0,0,1.52,58.91,160.73,160.73,0,0,0,17.62,53.11,105.83,105.83,0,0,0,36.29,38.77q23.17,14.85,57.45,15.84,42.83,1,77.84-17.87a254.14,254.14,0,0,0,63.75-49.15l58.46,62a204.61,204.61,0,0,1-57.19,57.44,251.67,251.67,0,0,1-73.58,33.51A290,290,0,0,1,2123.44,2165.78Z" transform="translate(-360.27 -1421.06)"/></svg>